<svg width="219" height="240" viewBox="0 0 219 240" fill="none" xmlns="http://www.w3.org/2000/svg">
<path d="M187.246 0.138672L218.246 17.6387L218.5 17.7822V52.2734L218.363 52.418L191.28 80.9775C192.05 82.1555 192.5 83.5619 192.5 85.0742C192.5 89.2164 189.142 92.5742 185 92.5742C184.709 92.5742 184.421 92.5548 184.139 92.5225L174.718 130.676C177.533 131.915 179.5 134.727 179.5 138C179.5 142.418 175.918 146 171.5 146C170.547 146 169.634 145.833 168.786 145.527L154.15 173.336C155.602 174.784 156.5 176.787 156.5 179C156.5 183.418 152.918 187 148.5 187C147.841 187 147.201 186.918 146.588 186.768L143.768 191H138.5L139.1 190.2L143.084 184.887C141.68 183.594 140.738 181.806 140.539 179.8L107.669 172.549C107.14 173.616 106.38 174.548 105.453 175.279L105.474 175.339L113.974 200.339L114.198 201H109.646L109.528 200.667L101.136 176.972C100.926 176.988 100.714 177 100.5 177C98.351 177 96.4012 176.151 94.9639 174.772L81.2559 182.93L81.0205 183.069L77.7764 181.447L76.9785 181.049L77.7354 180.576L92.7979 171.161C92.6412 170.602 92.5416 170.018 92.5107 169.416L77.2783 166.561L70.9473 179.224L70.7861 179.546L70.4297 179.495L66.9297 178.995L66.2646 178.9L66.5459 178.29L72.2764 165.874L60.0615 163.611C59.4751 165.31 58.3334 166.747 56.8525 167.71L60.4824 180.867L60.6006 181.298L57.1826 182.665L57.0225 182.148L52.9375 168.987C52.7926 168.995 52.6468 169 52.5 169C50.7262 169 49.0882 168.421 47.7617 167.444L28.3467 186.859C29.0787 188.067 29.5 189.484 29.5 191C29.5 195.418 25.9183 199 21.5 199C17.0817 199 13.5 195.418 13.5 191C13.5 186.582 17.0817 183 21.5 183C22.8841 183 24.1858 183.352 25.3213 183.971L45.1436 164.148C44.7295 163.182 44.5 162.118 44.5 161C44.5 156.582 48.0817 153 52.5 153C53.8956 153 55.2074 153.358 56.3496 153.986L86.2686 131.425C85.776 130.387 85.5 129.226 85.5 128C85.5 123.582 89.0817 120 93.5 120C97.9183 120 101.5 123.582 101.5 128C101.5 128.497 101.452 128.984 101.365 129.456L127.66 138.848C129.064 136.541 131.602 135 134.5 135C135.565 135 136.581 135.209 137.51 135.587L153.913 115.538C153.023 114.248 152.5 112.686 152.5 111C152.5 106.582 156.082 103 160.5 103C161.618 103 162.681 103.23 163.647 103.644L178.325 88.4932C177.799 87.4677 177.5 86.3061 177.5 85.0742C177.5 83.69 177.876 82.3942 178.53 81.2812L155.601 50.875L155.5 50.7412V17.7822L155.754 17.6387L186.754 0.138672L187 0L187.246 0.138672ZM108.008 166.231C108.238 166.855 108.392 167.514 108.46 168.199L141.33 175.45C141.368 175.373 141.407 175.296 141.448 175.22L120.48 156.157L108.008 166.231ZM123.789 153.551L143.803 172.135L134.875 150.989C134.751 150.995 134.626 151 134.5 151C132.677 151 130.998 150.389 129.652 149.362L123.789 153.551ZM142.45 143.88C142.207 146.107 141.05 148.057 139.361 149.352L147.668 171.042C147.941 171.014 148.219 171 148.5 171C149.295 171 150.062 171.117 150.786 171.333L165.528 143.321C164.935 142.656 164.451 141.892 164.105 141.056L142.45 143.88ZM79.2422 163.109L93.3965 165.321C94.1811 163.809 95.4325 162.579 96.9619 161.823L92.5664 135.944C92.4948 135.936 92.4235 135.927 92.3525 135.917L79.2422 163.109ZM101.847 161.114C103.138 161.333 104.323 161.861 105.324 162.619L117.214 153.473L97.25 135.83L101.847 161.114ZM59.7285 157.57C60.0239 158.192 60.2399 158.857 60.3672 159.555L74.2236 161.944L87.5244 136.261L59.7285 157.57ZM120.528 150.857L127.099 146.039C126.713 145.102 126.5 144.076 126.5 143C126.5 142.951 126.502 142.902 126.503 142.853L101.275 133.843L120.528 150.857ZM140.656 137.893C141.132 138.465 141.528 139.105 141.83 139.796L163.633 136.549C163.966 134.733 164.911 133.132 166.248 131.967L161.053 118.979C160.87 118.991 160.686 119 160.5 119C159.265 119 158.095 118.72 157.051 118.22L140.656 137.893ZM167.376 106.329L167.163 106.572C168.007 107.84 168.5 109.362 168.5 111C168.5 113.755 167.107 116.184 164.987 117.623L169.995 130.143C170.428 130.06 170.874 130.013 171.329 130.004L180.069 91.8213L167.376 106.329ZM187.5 43.7871L187.347 43.9346L173.347 57.4346L173.133 57.6406L172.849 57.5508L163.362 54.5322L181.604 78.3867C182.623 77.8677 183.777 77.5742 185 77.5742C185.837 77.5742 186.642 77.7128 187.394 77.9658L203.004 61.9336L190.255 69.5039L189.584 68.7969L203.584 47.7969L203.809 47.459L204.186 47.6104L213.5 51.3359V49.416L204.818 46.04L204.468 45.9033L204.502 45.5293L206.502 23.5293L206.533 23.1807L206.871 23.0908L214 21.1895V19.7051L206.114 21.5605L205.831 21.6279L205.633 21.4141L187.5 1.84961V43.7871ZM188.579 45.0801L201.079 47.0801L201.887 47.21L201.403 47.8691L186.403 68.3691L186.059 68.8398L174.778 57.5596L175.161 57.207L188.161 45.207L188.339 45.042L188.579 45.0801ZM159.718 48.792L172.894 53.3359L169.713 30.1641L159.718 48.792ZM190.376 7.24512L204.376 23.2451L204.519 23.4072L204.498 23.6221L202.447 45.1553L201.918 45.0674L189.918 43.0674L189.5 42.998V6.24316L190.376 7.24512ZM159.5 40.4561L167.294 24.8662L159.5 22.2676V40.4561ZM161.767 18.4502L169.821 20.9932L179.572 8.69922L161.767 18.4502Z" fill="url(#paint0_linear_82_2)"/>
<path d="M70.5 179L77.5 181L81.5 183L95.5 188.5L102 200L110 200.5H120L139.5 190.5H143L160.5 196L167.5 207.5L179.5 209C179.5 209 182.5 215 184.5 218C186.5 221 192.5 225 192.5 225L188.5 240H0L3.5 218L17 205.5H33L41.5 188.5L57.5 182.226L67 178.5L70.5 179ZM9.5 237H64L46.5 220.5L9.5 237ZM76.5 237H137.5L112.5 220.5L76.5 237ZM18 209L6.5 220L4 236L43.5 218.5L33.5 209H18ZM48.5 218.5L66.5 235V186L48.5 218.5ZM115 218L140.5 235L138.5 220.5L128 214L120.5 205.5L115 218ZM70 234.5L99 201.5L93.5 191L70 182.5V234.5ZM75 234L110.5 218L101 204.5L75 234ZM44 191L36 206.5L46 216L64.5 183L44 191ZM112.5 215L117.5 204L104.5 203.5L112.5 215Z" fill="url(#paint1_linear_82_2)"/>
<defs>
<linearGradient id="paint0_linear_82_2" x1="189.5" y1="1.00001" x2="20.5" y2="197" gradientUnits="userSpaceOnUse">
<stop stop-color="#39ABDB"/>
<stop offset="0.179739" stop-color="#4377B6"/>
<stop offset="0.324291" stop-color="#54469D"/>
<stop offset="0.396658" stop-color="#CE5998"/>
<stop offset="0.605769" stop-color="#E35992"/>
<stop offset="1" stop-color="#7446AC"/>
</linearGradient>
<linearGradient id="paint1_linear_82_2" x1="67" y1="181.5" x2="70" y2="240" gradientUnits="userSpaceOnUse">
<stop stop-color="#4899BE"/>
<stop offset="1" stop-color="#304DA8"/>
</linearGradient>
</defs>
</svg>
