<svg width="438" height="365" viewBox="0 0 438 365" fill="none" xmlns="http://www.w3.org/2000/svg">
<path d="M3.06117 307.425V304.262H15.9137V306.264C15.9137 309.04 16.6344 311.108 18.0758 312.47C19.5439 313.804 21.5859 314.472 24.2018 314.472C26.7109 314.472 28.6461 313.858 30.0075 312.63C31.3688 311.402 32.0495 309.734 32.0495 307.625C32.0495 305.863 31.2754 304.395 29.7272 303.221C28.179 302.02 25.2829 300.725 21.0387 299.337C15.0062 297.362 10.6152 294.906 7.86586 291.97C5.1432 289.007 3.78188 285.243 3.78188 280.679C3.78188 275.5 5.59698 271.416 9.22719 268.427C12.8574 265.41 17.7155 263.902 23.8014 263.902C29.8073 263.902 34.6653 265.277 38.3756 268.026C42.0859 270.749 43.9411 274.633 43.9411 279.678V282.2H31.2887V280.719C31.2887 278.477 30.6614 276.728 29.4069 275.474C28.179 274.192 26.3906 273.552 24.0416 273.552C21.5592 273.552 19.7575 274.099 18.6364 275.193C17.5153 276.288 16.9547 277.729 16.9547 279.518C16.9547 281.146 17.7689 282.507 19.3971 283.602C21.0521 284.696 24.1217 285.937 28.6061 287.325C34.3717 289.114 38.5758 291.503 41.2184 294.492C43.861 297.482 45.1823 301.432 45.1823 306.344C45.1823 311.789 43.2737 316.073 39.4567 319.196C35.6396 322.293 30.6214 323.841 24.402 323.841C18.1559 323.841 13.0309 322.453 9.02699 319.677C5.04978 316.901 3.06117 312.817 3.06117 307.425ZM54.8045 275.874V264.703H99.8084V275.874H84.4734V323H70.2195V275.874H54.8045ZM111.152 323V264.703H134.735C140.367 264.703 144.825 266.398 148.108 269.788C151.418 273.151 153.073 277.569 153.073 283.041C153.073 288.673 151.325 293.264 147.828 296.814C144.358 300.365 139.927 302.14 134.535 302.14H125.246V323H111.152ZM125.246 292.971H131.532C134.228 292.971 136.123 292.117 137.218 290.408C138.312 288.7 138.859 286.511 138.859 283.842C138.859 281.173 138.312 278.984 137.218 277.275C136.123 275.567 134.228 274.713 131.532 274.713H125.246V292.971ZM140.1 323L129.37 297.575L141.822 294.092L155.435 323H140.1ZM162.815 323L181.273 264.663H197.009L215.106 323H201.253L189.922 283.521C189.628 282.454 189.375 281.52 189.161 280.719C188.974 279.891 188.801 279.184 188.641 278.597H188.521C188.36 279.184 188.174 279.878 187.96 280.679C187.746 281.479 187.493 282.427 187.199 283.521L176.389 323H162.815ZM173.386 311.389L175.308 302.1H202.134L204.216 311.389H173.386ZM217.962 275.874V264.703H262.966V275.874H247.631V323H233.377V275.874H217.962ZM271.107 295.413V292.29C271.107 282.334 273.349 275.113 277.833 270.629C282.344 266.118 288.123 263.862 295.17 263.862C302.244 263.862 308.023 266.118 312.507 270.629C316.991 275.113 319.234 282.334 319.234 292.29V295.413C319.234 305.369 316.991 312.603 312.507 317.114C308.023 321.599 302.244 323.841 295.17 323.841C288.123 323.841 282.344 321.599 277.833 317.114C273.349 312.603 271.107 305.369 271.107 295.413ZM285.761 299.417C285.761 304.756 286.588 308.559 288.243 310.828C289.925 313.07 292.234 314.191 295.17 314.191C298.106 314.191 300.402 313.07 302.057 310.828C303.739 308.559 304.579 304.756 304.579 299.417V288.366C304.579 283.054 303.739 279.291 302.057 277.075C300.402 274.833 298.106 273.712 295.17 273.712C292.234 273.712 289.925 274.833 288.243 277.075C286.588 279.291 285.761 283.054 285.761 288.366V299.417ZM330.738 307.425V304.262H343.59V306.264C343.59 309.04 344.311 311.108 345.752 312.47C347.22 313.804 349.262 314.472 351.878 314.472C354.387 314.472 356.323 313.858 357.684 312.63C359.045 311.402 359.726 309.734 359.726 307.625C359.726 305.863 358.952 304.395 357.404 303.221C355.856 302.02 352.959 300.725 348.715 299.337C342.683 297.362 338.292 294.906 335.542 291.97C332.82 289.007 331.458 285.243 331.458 280.679C331.458 275.5 333.273 271.416 336.904 268.427C340.534 265.41 345.392 263.902 351.478 263.902C357.484 263.902 362.342 265.277 366.052 268.026C369.762 270.749 371.618 274.633 371.618 279.678V282.2H358.965V280.719C358.965 278.477 358.338 276.728 357.083 275.474C355.856 274.192 354.067 273.552 351.718 273.552C349.236 273.552 347.434 274.099 346.313 275.193C345.192 276.288 344.631 277.729 344.631 279.518C344.631 281.146 345.445 282.507 347.074 283.602C348.729 284.696 351.798 285.937 356.283 287.325C362.048 289.114 366.252 291.503 368.895 294.492C371.537 297.482 372.859 301.432 372.859 306.344C372.859 311.789 370.95 316.073 367.133 319.196C363.316 322.293 358.298 323.841 352.078 323.841C345.832 323.841 340.707 322.453 336.703 319.677C332.726 316.901 330.738 312.817 330.738 307.425Z" fill="white"/>
<path d="M265.746 0.138672L296.746 17.6387L297 17.7822V52.2734L296.863 52.418L269.78 80.9775C270.55 82.1555 271 83.5619 271 85.0742C271 89.2164 267.642 92.5742 263.5 92.5742C263.209 92.5742 262.921 92.5548 262.639 92.5225L253.218 130.676C256.033 131.915 258 134.727 258 138C258 142.418 254.418 146 250 146C249.047 146 248.134 145.833 247.286 145.527L232.65 173.336C234.102 174.784 235 176.787 235 179C235 183.418 231.418 187 227 187C226.341 187 225.701 186.918 225.088 186.768L222.268 191H217L217.6 190.2L221.584 184.887C220.18 183.594 219.238 181.806 219.039 179.8L186.169 172.549C185.64 173.616 184.88 174.548 183.953 175.279L183.974 175.339L192.474 200.339L192.698 201H188.146L188.028 200.667L179.636 176.972C179.426 176.988 179.214 177 179 177C176.851 177 174.901 176.151 173.464 174.772L159.756 182.93L159.521 183.069L156.276 181.447L155.479 181.049L156.235 180.576L171.298 171.161C171.141 170.602 171.042 170.018 171.011 169.416L155.778 166.561L149.447 179.224L149.286 179.546L148.93 179.495L145.43 178.995L144.765 178.9L145.046 178.29L150.776 165.874L138.562 163.611C137.975 165.31 136.833 166.747 135.353 167.71L138.982 180.867L139.101 181.298L135.683 182.665L135.522 182.148L131.438 168.987C131.293 168.995 131.147 169 131 169C129.226 169 127.588 168.421 126.262 167.444L106.847 186.859C107.579 188.067 108 189.484 108 191C108 195.418 104.418 199 100 199C95.5817 199 92 195.418 92 191C92 186.582 95.5817 183 100 183C101.384 183 102.686 183.352 103.821 183.971L123.644 164.148C123.229 163.182 123 162.118 123 161C123 156.582 126.582 153 131 153C132.396 153 133.707 153.358 134.85 153.986L164.769 131.425C164.276 130.387 164 129.226 164 128C164 123.582 167.582 120 172 120C176.418 120 180 123.582 180 128C180 128.497 179.952 128.984 179.865 129.456L206.16 138.848C207.564 136.541 210.102 135 213 135C214.065 135 215.081 135.209 216.01 135.587L232.413 115.538C231.523 114.248 231 112.686 231 111C231 106.582 234.582 103 239 103C240.118 103 241.181 103.23 242.147 103.644L256.825 88.4932C256.299 87.4677 256 86.3061 256 85.0742C256 83.69 256.376 82.3942 257.03 81.2812L234.101 50.875L234 50.7412V17.7822L234.254 17.6387L265.254 0.138672L265.5 0L265.746 0.138672ZM186.508 166.231C186.738 166.855 186.892 167.514 186.96 168.199L219.83 175.45C219.868 175.373 219.907 175.296 219.948 175.22L198.98 156.157L186.508 166.231ZM202.289 153.551L222.303 172.135L213.375 150.989C213.251 150.995 213.126 151 213 151C211.177 151 209.498 150.389 208.152 149.362L202.289 153.551ZM220.95 143.88C220.707 146.107 219.55 148.057 217.861 149.352L226.168 171.042C226.441 171.014 226.719 171 227 171C227.795 171 228.562 171.117 229.286 171.333L244.028 143.321C243.435 142.656 242.951 141.892 242.605 141.056L220.95 143.88ZM157.742 163.109L171.896 165.321C172.681 163.809 173.933 162.579 175.462 161.823L171.066 135.944C170.995 135.936 170.924 135.927 170.853 135.917L157.742 163.109ZM180.347 161.114C181.638 161.333 182.823 161.861 183.824 162.619L195.714 153.473L175.75 135.83L180.347 161.114ZM138.229 157.57C138.524 158.192 138.74 158.858 138.867 159.555L152.724 161.944L166.024 136.261L138.229 157.57ZM199.028 150.857L205.599 146.039C205.213 145.102 205 144.076 205 143C205 142.951 205.002 142.902 205.003 142.853L179.775 133.843L199.028 150.857ZM219.156 137.893C219.632 138.465 220.028 139.105 220.33 139.796L242.133 136.549C242.466 134.733 243.411 133.132 244.748 131.967L239.553 118.979C239.37 118.991 239.186 119 239 119C237.765 119 236.595 118.72 235.551 118.22L219.156 137.893ZM245.876 106.329L245.663 106.572C246.507 107.84 247 109.362 247 111C247 113.755 245.607 116.184 243.487 117.623L248.495 130.143C248.928 130.06 249.374 130.013 249.829 130.004L258.569 91.8213L245.876 106.329ZM266 43.7871L265.847 43.9346L251.847 57.4346L251.633 57.6406L251.349 57.5508L241.862 54.5322L260.104 78.3867C261.123 77.8677 262.277 77.5742 263.5 77.5742C264.337 77.5742 265.142 77.7128 265.894 77.9658L281.504 61.9336L268.755 69.5039L268.084 68.7969L282.084 47.7969L282.309 47.459L282.686 47.6104L292 51.3359V49.416L283.318 46.04L282.968 45.9033L283.002 45.5293L285.002 23.5293L285.033 23.1807L285.371 23.0908L292.5 21.1895V19.7051L284.614 21.5605L284.331 21.6279L284.133 21.4141L266 1.84961V43.7871ZM267.079 45.0801L279.579 47.0801L280.387 47.21L279.903 47.8691L264.903 68.3691L264.559 68.8398L253.278 57.5596L253.661 57.207L266.661 45.207L266.839 45.042L267.079 45.0801ZM238.218 48.792L251.394 53.3359L248.213 30.1641L238.218 48.792ZM268.876 7.24512L282.876 23.2451L283.019 23.4072L282.998 23.6221L280.947 45.1553L280.418 45.0674L268.418 43.0674L268 42.998V6.24316L268.876 7.24512ZM238 40.4561L245.794 24.8662L238 22.2676V40.4561ZM240.267 18.4502L248.321 20.9932L258.072 8.69922L240.267 18.4502Z" fill="url(#paint0_linear_83_9)"/>
<path d="M149 179L156 181L160 183L174 188.5L180.5 200L188.5 200.5H198.5L218 190.5H221.5L239 196L246 207.5L258 209C258 209 261 215 263 218C265 221 271 225 271 225L267 240H78.5L82 218L95.5 205.5H111.5L120 188.5L136 182.226L145.5 178.5L149 179ZM88 237H142.5L125 220.5L88 237ZM155 237H216L191 220.5L155 237ZM96.5 209L85 220L82.5 236L122 218.5L112 209H96.5ZM127 218.5L145 235V186L127 218.5ZM193.5 218L219 235L217 220.5L206.5 214L199 205.5L193.5 218ZM148.5 234.5L177.5 201.5L172 191L148.5 182.5V234.5ZM153.5 234L189 218L179.5 204.5L153.5 234ZM122.5 191L114.5 206.5L124.5 216L143 183L122.5 191ZM191 215L196 204L183 203.5L191 215Z" fill="url(#paint1_linear_83_9)"/>
<path d="M276.623 351V336.146H279.592V341.947C279.911 341.544 280.312 341.231 280.793 341.01C281.275 340.782 281.835 340.668 282.473 340.668C283.775 340.668 284.81 341.14 285.579 342.084C286.347 343.028 286.731 344.255 286.731 345.766V346.078C286.731 347.589 286.343 348.819 285.569 349.77C284.794 350.72 283.759 351.195 282.463 351.195C281.819 351.195 281.226 351.072 280.686 350.824C280.152 350.577 279.774 350.258 279.553 349.867H279.504L279.446 351H276.623ZM279.592 347.562C279.735 347.94 279.976 348.275 280.315 348.568C280.66 348.855 281.103 348.998 281.643 348.998C282.34 348.998 282.857 348.738 283.196 348.217C283.534 347.696 283.704 347.022 283.704 346.195V345.658C283.704 344.831 283.534 344.164 283.196 343.656C282.864 343.142 282.34 342.885 281.623 342.885C281.103 342.885 280.67 343.031 280.325 343.324C279.98 343.611 279.735 343.939 279.592 344.311V347.562ZM289.927 355.053L289.957 352.914C290.126 352.96 290.311 352.999 290.513 353.031C290.715 353.064 290.907 353.08 291.089 353.08C291.539 353.08 291.926 352.937 292.252 352.65C292.577 352.37 292.86 351.811 293.101 350.971L293.013 350.961L289.068 340.883H292.056L294.088 346.713C294.166 346.947 294.227 347.162 294.273 347.357C294.319 347.553 294.361 347.755 294.4 347.963H294.468C294.507 347.755 294.55 347.553 294.595 347.357C294.647 347.162 294.713 346.944 294.791 346.703L296.773 340.883H299.429L295.289 352.094C294.892 353.161 294.374 353.956 293.736 354.477C293.098 354.997 292.31 355.258 291.373 355.258C291.054 355.258 290.78 355.242 290.552 355.209C290.324 355.176 290.116 355.124 289.927 355.053ZM309.279 351V336.781H312.336V348.656H318.43V351H309.279ZM321.997 351V336.781H325.064V351H321.997ZM329.696 351V336.781H338.973V339.125H332.752V342.982H338.182V345.268H332.752V351H329.696ZM341.662 339.125V336.781H353.048V339.125H348.888V351H345.822V339.125H341.662ZM355.6 346.996V346.664H358.667V346.928C358.66 347.618 358.875 348.139 359.311 348.49C359.754 348.835 360.366 349.008 361.147 349.008C361.922 349.008 362.518 348.848 362.934 348.529C363.351 348.204 363.559 347.774 363.559 347.24C363.559 346.693 363.358 346.27 362.954 345.971C362.55 345.671 361.678 345.342 360.337 344.984C358.852 344.587 357.726 344.053 356.958 343.383C356.196 342.706 355.815 341.788 355.815 340.629C355.815 339.372 356.287 338.373 357.231 337.631C358.182 336.882 359.458 336.508 361.059 336.508C362.654 336.508 363.934 336.889 364.897 337.65C365.861 338.412 366.343 339.431 366.343 340.707V341.01H363.335V340.775C363.335 340.176 363.143 339.698 362.759 339.34C362.381 338.975 361.821 338.793 361.079 338.793C360.324 338.793 359.77 338.939 359.419 339.232C359.067 339.519 358.891 339.906 358.891 340.395C358.891 340.876 359.087 341.244 359.477 341.498C359.874 341.752 360.744 342.061 362.085 342.426C363.543 342.823 364.663 343.367 365.444 344.057C366.232 344.747 366.626 345.73 366.626 347.006C366.626 348.354 366.124 349.402 365.122 350.15C364.126 350.899 362.804 351.273 361.157 351.273C359.523 351.273 358.188 350.909 357.153 350.18C356.118 349.451 355.6 348.389 355.6 346.996Z" fill="white"/>
<path d="M339.838 358.994V353.469H341.385V359.035C341.385 359.711 341.547 360.201 341.871 360.506C342.2 360.807 342.631 360.957 343.166 360.957C343.701 360.957 344.131 360.805 344.455 360.5C344.784 360.195 344.948 359.707 344.948 359.035V353.469H346.459V358.994C346.459 360.072 346.139 360.873 345.498 361.396C344.862 361.916 344.078 362.176 343.149 362.176C342.223 362.176 341.44 361.916 340.799 361.396C340.159 360.873 339.838 360.072 339.838 358.994ZM348.156 362V353.469H351.285C352.285 353.469 353.052 353.709 353.587 354.189C354.126 354.666 354.396 355.322 354.396 356.158C354.396 356.998 354.126 357.66 353.587 358.145C353.052 358.629 352.285 358.871 351.285 358.871H349.703V362H348.156ZM349.703 357.693H351.208C351.822 357.693 352.249 357.551 352.492 357.266C352.734 356.98 352.855 356.613 352.855 356.164C352.855 355.715 352.734 355.352 352.492 355.074C352.249 354.793 351.822 354.652 351.208 354.652H349.703V357.693ZM355.536 362V353.469H358.571C359.559 353.469 360.327 353.703 360.874 354.172C361.42 354.641 361.694 355.281 361.694 356.094C361.694 356.906 361.42 357.553 360.874 358.033C360.327 358.514 359.559 358.754 358.571 358.754H357.083V362H355.536ZM357.083 357.588H358.542C359.135 357.588 359.551 357.447 359.79 357.166C360.028 356.885 360.147 356.529 360.147 356.1C360.147 355.67 360.028 355.32 359.79 355.051C359.551 354.777 359.135 354.641 358.542 354.641H357.083V357.588ZM360.346 362L358.301 358.062L359.919 357.951L362.092 362H360.346ZM363.103 362V353.469H365.101L367.31 359.293C367.357 359.422 367.4 359.549 367.439 359.674C367.482 359.795 367.519 359.922 367.55 360.055H367.591C367.623 359.922 367.658 359.793 367.697 359.668C367.736 359.543 367.779 359.418 367.826 359.293L370.023 353.469H372.062V362H370.539V356.234C370.539 356.109 370.541 355.971 370.545 355.818C370.552 355.662 370.562 355.521 370.574 355.396H370.521C370.498 355.521 370.463 355.662 370.416 355.818C370.373 355.971 370.328 356.109 370.281 356.234L368.113 362H366.83L364.65 356.234C364.603 356.109 364.558 355.969 364.515 355.812C364.476 355.656 364.445 355.516 364.422 355.391H364.369C364.384 355.516 364.394 355.656 364.398 355.812C364.406 355.969 364.41 356.109 364.41 356.234V362H363.103Z" fill="white"/>
<defs>
<linearGradient id="paint0_linear_83_9" x1="268" y1="1.00001" x2="99" y2="197" gradientUnits="userSpaceOnUse">
<stop stop-color="#39ABDB"/>
<stop offset="0.179739" stop-color="#4377B6"/>
<stop offset="0.324291" stop-color="#54469D"/>
<stop offset="0.396658" stop-color="#CE5998"/>
<stop offset="0.605769" stop-color="#E35992"/>
<stop offset="1" stop-color="#7446AC"/>
</linearGradient>
<linearGradient id="paint1_linear_83_9" x1="145.5" y1="181.5" x2="148.5" y2="240" gradientUnits="userSpaceOnUse">
<stop stop-color="#4899BE"/>
<stop offset="1" stop-color="#304DA8"/>
</linearGradient>
</defs>
</svg>
