<svg width="372" height="408" viewBox="0 0 372 408" fill="none" xmlns="http://www.w3.org/2000/svg">
<path d="M318.189 0.138672L370.896 29.8926L371.15 30.0361V88.335L371.014 88.4805L325.021 136.979C326.453 139.041 327.294 141.543 327.294 144.243C327.294 151.286 321.585 156.995 314.543 156.995C313.927 156.995 313.321 156.951 312.729 156.866L296.735 221.636C301.696 223.665 305.191 228.539 305.191 234.229C305.191 241.741 299.101 247.831 291.589 247.831C289.845 247.831 288.178 247.502 286.646 246.904L261.829 294.057C264.45 296.536 266.086 300.046 266.086 303.938C266.086 311.45 259.996 317.54 252.484 317.54C251.234 317.54 250.024 317.37 248.874 317.055L244.399 323.769L244.251 323.991H236.182L236.782 323.191L243.538 314.184C240.919 311.894 239.184 308.618 238.918 304.934L183.22 292.647C182.264 294.711 180.806 296.494 179.003 297.841L193.449 340.333L193.674 340.993H186.672L186.554 340.66L172.317 300.461C171.843 300.511 171.361 300.538 170.873 300.538C167.089 300.538 163.666 298.993 161.2 296.499L137.975 310.319L137.739 310.459L137.495 310.337L132.395 307.786L131.597 307.388L132.353 306.915L157.877 290.962C157.516 289.796 157.307 288.563 157.274 287.286L131.196 282.396L120.152 304.484L119.796 304.434L113.845 303.583L113.18 303.488L113.462 302.879L123.393 281.36L102.231 277.44C101.234 280.593 99.1213 283.248 96.3545 284.942L102.496 307.206L102.615 307.638L102.199 307.804L97.9492 309.504L97.4463 309.705L97.2861 309.188L90.3662 286.891C90.002 286.92 89.6335 286.937 89.2617 286.937C86.1191 286.936 83.2259 285.87 80.9229 284.08L48.0059 316.997C49.3673 319.115 50.1572 321.637 50.1572 324.342C50.157 331.854 44.0666 337.943 36.5547 337.943C29.0429 337.943 22.9534 331.854 22.9531 324.342C22.9531 316.83 29.0427 310.739 36.5547 310.739C39.0379 310.739 41.3654 311.406 43.3691 312.568L76.9072 279.031C76.1069 277.299 75.6602 275.369 75.6602 273.335C75.6602 265.823 81.7498 259.733 89.2617 259.732C91.771 259.732 94.1217 260.413 96.1396 261.598L146.833 223.37C145.897 221.525 145.369 219.437 145.369 217.227C145.369 209.715 151.46 203.625 158.972 203.625C166.483 203.625 172.573 209.715 172.573 217.227C172.573 218.195 172.471 219.14 172.278 220.052L216.87 235.978C219.215 231.885 223.626 229.129 228.681 229.129C230.621 229.129 232.466 229.535 234.136 230.267L261.896 196.337C260.255 194.089 259.285 191.32 259.285 188.323C259.285 180.811 265.375 174.722 272.887 174.722C274.92 174.722 276.848 175.168 278.58 175.968L303.365 150.383C302.363 148.561 301.791 146.469 301.791 144.243C301.791 141.755 302.505 139.435 303.737 137.473L264.837 85.8867L264.736 85.7529V30.0361L264.99 29.8926L317.697 0.138672L317.943 0L318.189 0.138672ZM183.506 281.887C184.013 283.155 184.335 284.517 184.438 285.94L240.137 298.227C240.3 297.875 240.476 297.53 240.668 297.195L204.857 264.642L183.506 281.887ZM209.917 260.633L244.608 292.847C244.74 292.753 244.873 292.663 245.008 292.574L229.69 256.295C229.357 256.319 229.02 256.332 228.681 256.332C225.45 256.332 222.483 255.206 220.149 253.324L209.917 260.633ZM242.234 243.868C241.898 247.931 239.777 251.485 236.656 253.748L250.712 290.451C251.292 290.376 251.884 290.337 252.484 290.337C253.96 290.337 255.381 290.572 256.711 291.007L281.687 243.553C280.481 242.273 279.521 240.76 278.882 239.089L242.234 243.868ZM134.211 277.194L158.626 281.01C159.999 278.178 162.325 275.895 165.187 274.576L157.749 230.773C157.382 230.741 157.019 230.693 156.661 230.632L134.211 277.194ZM172.797 273.47C175.259 273.818 177.509 274.826 179.362 276.309L199.842 260.556L164.822 229.608L172.797 273.47ZM101.396 267.184C102.033 268.438 102.482 269.804 102.704 271.245L126.392 275.33L149.847 230.038L101.396 267.184ZM204.906 256.54L216.237 248.23C215.493 246.549 215.079 244.688 215.079 242.73C215.079 242.523 215.084 242.317 215.093 242.112L170.599 226.222L204.906 256.54ZM238.918 233.775C239.908 234.906 240.713 236.201 241.287 237.615L278.149 232.125C278.672 228.76 280.427 225.802 282.94 223.729L274.192 201.861C273.763 201.902 273.327 201.925 272.887 201.925C270.658 201.925 268.555 201.388 266.699 200.438L238.918 233.775ZM284.314 180.151L284.026 180.481L283.98 180.45C285.56 182.672 286.488 185.389 286.488 188.323C286.488 193.135 283.99 197.363 280.219 199.781L288.682 220.939C289.618 220.735 290.591 220.628 291.589 220.628C291.612 220.628 291.636 220.628 291.659 220.628L306.811 154.44L284.314 180.151ZM318.443 73.8965L318.29 74.0439L294.487 96.9971L294.272 97.2041L293.988 97.1133L276.8 91.6445L308.452 133.036C310.262 132.051 312.337 131.491 314.543 131.491C316.103 131.491 317.597 131.773 318.979 132.285L347.252 103.247L323.3 117.47L322.628 116.763L346.432 81.0576L346.656 80.7197L347.033 80.8711L363.35 87.3975V83.377L348.366 77.5508L348.016 77.4141L348.05 77.0391L351.45 39.6338L351.481 39.2861L351.819 39.1963L364.2 35.8945V32.6592L350.362 35.916L350.079 35.9824L349.881 35.7686L318.443 1.84863V73.8965ZM320.573 76.5908L341.825 79.9912L342.633 80.1201L342.15 80.7803L316.646 115.635L316.302 116.105L297.669 97.4727L298.052 97.1201L320.154 76.7168L320.333 76.5527L320.573 76.5908ZM271.055 82.7529L294.384 90.7979L288.753 49.7725L271.055 82.7529ZM323.42 12.1465L347.224 39.3506L347.365 39.5127L347.345 39.7266L343.944 75.4316L343.894 75.9658L343.364 75.8779L322.962 72.4766L322.544 72.4072V11.1455L323.42 12.1465ZM270.837 69.8652L284.934 41.6709L270.837 36.9717V69.8652ZM274.155 31.0537L288.861 35.6973L306.664 13.251L274.155 31.0537Z" fill="url(#paint0_linear_82_2)"/>
<path d="M119.866 303.939L131.768 307.339L138.568 310.74L162.372 320.09L173.424 339.643L187.025 340.494H204.027L237.182 323.491H243.133L272.887 332.842L284.788 352.395L305.191 354.946C305.232 355.027 310.305 365.167 313.692 370.248C317.087 375.339 327.256 382.124 327.294 382.149L320.493 407.653H0L5.95117 370.248L28.9043 348.995H56.1074L70.5596 320.09L97.7627 309.422L113.915 303.089L119.866 303.939ZM16.1523 402.552H108.814L79.0605 374.498L16.1523 402.552ZM130.067 402.552H233.781L191.275 374.498L130.067 402.552ZM30.6045 354.946L11.0518 373.648L6.80078 400.851L73.96 371.097L56.958 354.946H30.6045ZM82.4609 371.097L113.065 399.151V315.84L82.4609 371.097ZM195.526 370.248L238.882 399.151L235.481 374.498L217.629 363.447L204.878 348.995L195.526 370.248ZM119.016 398.301L168.322 342.194L158.972 324.341L119.016 309.889V398.301ZM127.518 397.451L187.875 370.248L171.723 347.295L127.518 397.451ZM74.8105 324.341L61.208 350.695L78.2109 366.847L109.665 310.74L74.8105 324.341ZM191.275 365.147L199.777 346.444L177.674 345.594L191.275 365.147Z" fill="url(#paint1_linear_82_2)"/>
<defs>
<linearGradient id="paint0_linear_82_2" x1="321.893" y1="1.6965" x2="35.2384" y2="334.548" gradientUnits="userSpaceOnUse">
<stop stop-color="#39ABDB"/>
<stop offset="0.179739" stop-color="#4377B6"/>
<stop offset="0.324291" stop-color="#54469D"/>
<stop offset="0.396658" stop-color="#CE5998"/>
<stop offset="0.605769" stop-color="#E35992"/>
<stop offset="1" stop-color="#7446AC"/>
</linearGradient>
<linearGradient id="paint1_linear_82_2" x1="113.915" y1="308.189" x2="119.016" y2="407.653" gradientUnits="userSpaceOnUse">
<stop stop-color="#4899BE"/>
<stop offset="1" stop-color="#304DA8"/>
</linearGradient>
</defs>
</svg>
